<svg id="behance" xmlns="http://www.w3.org/2000/svg" width="32.766" height="20.523" viewBox="0 0 32.766 20.523">
  <path id="Path_107" data-name="Path 107" d="M9.5,102.6a12.344,12.344,0,0,1,2.629.256,5.672,5.672,0,0,1,2.034.832,3.952,3.952,0,0,1,1.318,1.535,5.421,5.421,0,0,1,.461,2.367,4.415,4.415,0,0,1-.691,2.54,5.061,5.061,0,0,1-2.054,1.663,4.851,4.851,0,0,1,2.77,1.874,6.223,6.223,0,0,1,.32,5.879,5.176,5.176,0,0,1-1.593,1.823,6.94,6.94,0,0,1-2.29,1.043,10.3,10.3,0,0,1-2.636.339H0V102.6H9.5Zm-.576,8.138a3.2,3.2,0,0,0,1.951-.563,2.105,2.105,0,0,0,.755-1.83,2.389,2.389,0,0,0-.25-1.158,1.856,1.856,0,0,0-.685-.7,2.7,2.7,0,0,0-.979-.352,6.032,6.032,0,0,0-1.139-.1H4.434v4.709Zm.243,8.579a5.554,5.554,0,0,0,1.241-.128,2.938,2.938,0,0,0,1.043-.429,2.158,2.158,0,0,0,.723-.806,2.788,2.788,0,0,0,.262-1.305,2.637,2.637,0,0,0-.876-2.226,3.74,3.74,0,0,0-2.316-.659H4.434v5.547H9.168Z" transform="translate(0 -102.6)" fill="#e877a6"/>
  <path id="Path_108" data-name="Path 108" d="M289.216,194.6a4.071,4.071,0,0,0,4.683.269,2.573,2.573,0,0,0,1.068-1.292H298.5a6.675,6.675,0,0,1-2.6,3.762,7.6,7.6,0,0,1-4.222,1.139,8.411,8.411,0,0,1-3.109-.55,6.609,6.609,0,0,1-2.354-1.567,7.18,7.18,0,0,1-1.484-2.431,8.983,8.983,0,0,1-.525-3.109,8.5,8.5,0,0,1,.537-3.052,7.1,7.1,0,0,1,1.529-2.444,7.26,7.26,0,0,1,2.367-1.625,7.562,7.562,0,0,1,3.045-.595,6.888,6.888,0,0,1,3.244.723,6.551,6.551,0,0,1,2.278,1.932,7.859,7.859,0,0,1,1.28,2.77,10.5,10.5,0,0,1,.282,3.25H288.224a4.04,4.04,0,0,0,.992,2.821Zm4.6-7.664a3.006,3.006,0,0,0-2.265-.812,3.461,3.461,0,0,0-1.593.326,3.228,3.228,0,0,0-1.017.806,2.9,2.9,0,0,0-.537,1.03,4.654,4.654,0,0,0-.185.96h6.526A3.894,3.894,0,0,0,293.816,186.932Z" transform="translate(-266.018 -177.95)" fill="#e877a6"/>
  <path id="Path_109" data-name="Path 109" d="M334.2,128h8.17v1.99H334.2Z" transform="translate(-312.819 -126.375)" fill="#e877a6"/>
</svg>
