<svg xmlns="http://www.w3.org/2000/svg" width="32.246" height="31.45" viewBox="0 0 32.246 31.45">
  <path id="github" d="M16.123,6.321a16.125,16.125,0,0,0-5.1,31.422c.806.149,1.1-.35,1.1-.776,0-.384-.015-1.655-.022-3-4.486.975-5.432-1.9-5.432-1.9A4.269,4.269,0,0,0,4.883,29.7c-1.463-1,.111-.98.111-.98a3.389,3.389,0,0,1,2.471,1.662,3.433,3.433,0,0,0,4.692,1.34,3.431,3.431,0,0,1,1.024-2.156C9.6,29.162,5.835,27.78,5.835,21.6A6.239,6.239,0,0,1,7.5,17.274a5.792,5.792,0,0,1,.156-4.267s1.354-.433,4.435,1.653a15.288,15.288,0,0,1,8.074,0c3.078-2.086,4.429-1.653,4.429-1.653a5.787,5.787,0,0,1,.159,4.267A6.229,6.229,0,0,1,26.409,21.6c0,6.193-3.772,7.556-7.362,7.955a3.854,3.854,0,0,1,1.093,2.986c0,2.157-.019,3.894-.019,4.425,0,.429.29.932,1.108.774a16.125,16.125,0,0,0-5.106-31.42Z" transform="translate(0 -6.321)" fill="#e877a6"/>
</svg>
