<svg id="linkedin" xmlns="http://www.w3.org/2000/svg" width="32.289" height="29.983" viewBox="0 0 32.289 29.983">
  <path id="Path_110" data-name="Path 110" d="M192,192h6.382v3.272h.091a7.078,7.078,0,0,1,6.3-3.272c6.737,0,7.983,4.194,7.983,9.648v11.109H206.1v-9.848c0-2.349-.048-5.37-3.461-5.37-3.465,0-3.994,2.558-3.994,5.2v10.019H192Z" transform="translate(-180.468 -182.774)" fill="#e877a6"/>
  <path id="Path_111" data-name="Path 111" d="M32,192h6.919v20.757H32Z" transform="translate(-32 -182.774)" fill="#e877a6"/>
  <path id="Path_112" data-name="Path 112" d="M38.919,67.46A3.46,3.46,0,1,1,35.46,64,3.46,3.46,0,0,1,38.919,67.46Z" transform="translate(-32 -64)" fill="#e877a6"/>
</svg>
